<svg fill="#FFFFFF" xmlns="http://www.w3.org/2000/svg"  viewBox="0 0 72 72" width="64px" height="64px"><path d="M63,19.645c-1.43,2.143-3.24,4.026-5.325,5.538c0.02,0.459,0.03,0.921,0.03,1.384C57.705,40.701,46.977,57,27.353,57	C21.328,57,13.476,54.884,11,52.195c0.836,0.1,1.686,0.15,2.546,0.15c4.999,0,9.6-1.711,13.249-4.58	c-4.668-0.086-8.608-3.18-9.966-7.43c2.124,0.334,4.818-0.184,4.818-0.184s-8.342-1.436-8.558-10.622	c2.412,1.402,4.832,1.338,4.832,1.338s-4.811-2.97-4.744-8.901c0.039-3.499,1.442-5.38,1.442-5.38	c9.115,11.255,21.989,11.178,21.989,11.178s-0.276-1.598-0.276-2.436c0-5.906,4.775-10.697,10.667-10.697	c3.068,0,5.84,1.3,7.786,3.379c2.432-0.482,4.716-1.372,6.776-2.597c-0.931,3.737-4.69,5.918-4.69,5.918S60.09,20.971,63,19.645z M34.528,48.206c1.646-0.256,15.165-4.291,16.153-21.64c0.015-0.27,0.005-1.258-0.012-1.627c-0.001-0.032,0.034-0.113,0.053-0.132	c0.057-0.057,0.112-0.133,0.15-0.222c0.015-0.034,0.01-0.081-0.027-0.092c-0.07-0.02-0.127-0.043-0.169-0.061	c-0.049-0.021-0.05-0.062-0.019-0.108s0.067-0.109,0.085-0.184c0.005-0.02-0.004-0.054-0.045-0.055	c-0.051-0.001-0.095,0.005-0.127,0.004c-0.034-0.001-0.084-0.03-0.1-0.044c-0.503-0.461-1.444-1.475-2.899-1.475	c-1.383,0-3.243,1.319-3.243,5.345c0,1.26,0.021,2.61,0.063,3.933c0.049,1.527-1.281,3.015-3.402,2.964	c-3.498-0.085-8.955-0.512-13.326-2.172c0.147,0.466,0.348,0.859,0.539,1.166c0.302,0.486,0.286,1.003-0.185,1.282	c-0.471,0.28-1.12,0.591-1.834,0.72c1.722,1.022,3.497,1.737,4.565,2.122c0.616,0.222,1.022,0.74,0.842,1.371	c-0.177,0.619-0.552,1.456-1.346,2.339c0.824,0.251,2.716,0.372,4.143,0.428c1.009,0.04,1.753,0.865,1.58,1.956	C35.76,45.338,35.344,47.048,34.528,48.206z"/></svg>